<svg xmlns="http://www.w3.org/2000/svg" width="220" height="130" viewBox="0 0 220 130">
    <g fill="none" fill-rule="evenodd">
        <path fill="#F61067" d="M106.5 57C90.758 57 78 44.24 78 28.5V0h28.5C122.24 0 135 12.76 135 28.5S122.24 57 106.5 57" transform="translate(58 14)"/>
        <g fill="#2E3D5D" fill-rule="nonzero" transform="translate(58 14) translate(0 10.202)">
            <path d="M61.826 7.845H33.603c-.933 0-1.688.758-1.688 1.694 0 .936.755 1.694 1.688 1.694h28.223c.933 0 1.688-.758 1.688-1.694 0-.936-.755-1.694-1.688-1.694z"/>
            <ellipse cx="10.156" cy="9.539" rx="2.028" ry="2.036"/>
            <ellipse cx="17.972" cy="9.539" rx="2.028" ry="2.036"/>
            <ellipse cx="25.352" cy="9.539" rx="2.028" ry="2.036"/>
            <ellipse cx="88.531" cy="9.539" rx="2.028" ry="2.036"/>
            <path d="M101.013 26.787h-2.544V8.128C98.469 3.646 94.836 0 90.37 0H8.098C3.633 0 0 3.646 0 8.128v65.58c0 4.482 3.633 8.128 8.098 8.128h39.455c.138 4.854 4.112 8.76 8.98 8.76h44.48c4.955 0 8.987-4.047 8.987-9.02V35.807c0-4.974-4.032-9.02-8.987-9.02zm-80.197 51.66H8.098c-2.604 0-4.722-2.125-4.722-4.739V60.14c2.41-3.043 6.1-4.848 9.98-4.848 7.028 0 12.745 5.738 12.745 12.792 0 4.12-1.969 7.956-5.285 10.364zm14.234-4.164c-.405 1.433-.957 2.831-1.643 4.165h-7.67c2.39-2.872 3.74-6.521 3.74-10.364 0-8.922-7.232-16.18-16.12-16.18-3.648 0-7.165 1.257-9.98 3.482v-7.6c1.233-.614 2.518-1.111 3.83-1.484.651-.185 1.13-.743 1.214-1.418l.373-2.963c.08-.636.621-1.116 1.26-1.116h6.633c.64 0 1.182.48 1.26 1.118l.37 2.967c.085.674.562 1.234 1.214 1.42 1.665.474 3.282 1.148 4.805 2.002.592.332 1.323.277 1.858-.14l2.357-1.836c.504-.393 1.226-.348 1.678.105l4.69 4.708c.452.454.497 1.178.105 1.685l-1.83 2.36c-.416.537-.471 1.272-.14 1.867.855 1.537 1.53 3.168 2.003 4.85.184.655.741 1.135 1.413 1.22l2.952.374c.634.08 1.112.624 1.112 1.265v6.658c0 .642-.479 1.186-1.113 1.265l-2.956.371c-.672.084-1.23.564-1.415 1.219zm71.574 7.293c0 3.105-2.517 5.632-5.611 5.632h-44.48c-3.093 0-5.61-2.527-5.61-5.632V74.69c0-.936-.756-1.695-1.689-1.695-.932 0-1.688.759-1.688 1.695v3.757H37.138c.307-.708.586-1.427.828-2.158l1.874-.235c2.32-.291 4.07-2.28 4.07-4.628V64.77c0-2.344-1.748-4.334-4.065-4.627l-1.87-.236c-.395-1.197-.878-2.367-1.445-3.498l1.159-1.494c1.436-1.853 1.271-4.502-.382-6.162l-4.691-4.708c-1.652-1.657-4.29-1.823-6.135-.386l-1.495 1.165c-1.117-.564-2.272-1.046-3.454-1.44l-.234-1.881c-.29-2.33-2.272-4.086-4.61-4.086h-6.634c-2.336 0-4.318 1.755-4.61 4.08l-.236 1.878c-.618.206-1.229.437-1.832.69V18.86h8.807c.933 0 1.688-.759 1.688-1.694 0-.936-.755-1.694-1.688-1.694H3.376V8.128c0-2.613 2.118-4.74 4.722-4.74h82.273c2.603 0 4.722 2.127 4.722 4.74v7.344H21.955c-.932 0-1.688.758-1.688 1.694 0 .935.756 1.694 1.688 1.694h73.138v7.927h-38.56c-4.955 0-8.987 4.046-8.987 9.02v29.395c0 .936.756 1.695 1.688 1.695.933 0 1.688-.759 1.688-1.695V35.807c0-3.105 2.518-5.631 5.612-5.631h44.479c3.094 0 5.61 2.526 5.61 5.631v45.769z"/>
            <path d="M97.934 70.683l-15.63-27.928c-.6-1.07-1.728-1.733-2.95-1.733h-.014c-1.227.006-2.357.68-2.949 1.758L61.073 70.71c-.583 1.062-.564 2.32.05 3.364.616 1.044 1.705 1.667 2.913 1.667h30.95c1.214 0 2.305-.628 2.919-1.68.613-1.052.624-2.315.03-3.378zm-33.898 1.67l-.006-.01 15.33-27.929 15.626 27.938h-30.95z"/>
            <path d="M80.85 66.133c-.329-.352-.72-.528-1.173-.528-.537 0-.985.172-1.343.516-.358.345-.537.762-.537 1.252 0 .475.184.888.55 1.24.366.352.81.528 1.33.528.453 0 .844-.175 1.174-.528.328-.352.493-.765.493-1.24 0-.474-.164-.888-.493-1.24zM80.78 52.594c-.299-.253-.675-.379-1.128-.379-.522 0-.95.126-1.285.379-.334.252-.5.593-.5 1.022 0 .918.053 2.488.16 4.708.106 2.22.16 3.782.16 4.685 0 .674.488 1.011 1.465 1.011.348 0 .675-.088.981-.264.306-.176.46-.425.46-.746 0-.904.023-2.465.068-4.686.046-2.22.069-3.79.069-4.708 0-.428-.15-.77-.45-1.022z"/>
        </g>
    </g>
</svg>
