<svg xmlns="http://www.w3.org/2000/svg" width="220" height="130" viewBox="0 0 220 130">
    <g fill="none" fill-rule="evenodd">
        <path fill="#78E3FD" d="M71.499 61C54.654 61 41 47.345 41 30.5V0h30.499C88.344 0 102 13.655 102 30.5S88.344 61 71.499 61" transform="translate(77 11)"/>
        <g fill="#2E3D5D" fill-rule="nonzero" transform="translate(77 11) translate(0 9)">
            <circle cx="37.5" cy="39" r="1.5"/>
            <circle cx="42" cy="36" r="1.5"/>
            <circle cx="33" cy="36" r="1.5"/>
            <circle cx="28.5" cy="33" r="1.5"/>
            <circle cx="46.5" cy="33" r="1.5"/>
            <circle cx="51" cy="30" r="1.5"/>
            <circle cx="24" cy="30" r="1.5"/>
            <circle cx="37.5" cy="33" r="1.5"/>
            <circle cx="37.5" cy="51" r="1.5"/>
            <circle cx="37.5" cy="55.5" r="1.5"/>
            <circle cx="37.5" cy="60" r="1.5"/>
            <circle cx="37.5" cy="64.5" r="1.5"/>
            <circle cx="37.5" cy="69" r="1.5"/>
            <circle cx="37.5" cy="73.5" r="1.5"/>
            <path d="M73.5 87H69v-6h-7.5V65.667c0-4.05-2.013-7.812-5.383-10.059L40.205 45l15.912-10.608c3.37-2.247 5.383-6.009 5.383-10.059V9H69V3h4.5c.828 0 1.5-.67 1.5-1.5S74.328 0 73.5 0h-72C.672 0 0 .67 0 1.5S.672 3 1.5 3H6v6h7.5v15.333c0 4.05 2.013 7.812 5.384 10.059L34.794 45 18.883 55.608c-3.37 2.247-5.383 6.009-5.383 10.059V81H6v6H1.5c-.828 0-1.5.67-1.5 1.5S.672 90 1.5 90h72c.828 0 1.5-.67 1.5-1.5s-.672-1.5-1.5-1.5zM9 6V3h57v3H9zm11.547 25.896c-2.534-1.69-4.047-4.518-4.047-7.563V9h42v15.333c0 3.045-1.514 5.873-4.047 7.563L37.5 43.197 20.547 31.896zM16.5 65.667c0-3.045 1.514-5.873 4.047-7.563L37.5 46.803l16.953 11.301c2.533 1.69 4.047 4.518 4.047 7.563V81h-42V65.667zM9 84h57v3H9v-3z"/>
        </g>
    </g>
</svg>
