<svg xmlns="http://www.w3.org/2000/svg" width="220" height="130" viewBox="0 0 220 130">
    <g fill="none" fill-rule="evenodd">
        <path fill="#FFE800" d="M78.501 91C96.451 91 111 76.45 111 58.5V26H78.501C60.551 26 46 40.55 46 58.5S60.552 91 78.501 91" transform="translate(65 20)"/>
        <g fill="#2E3D5D" fill-rule="nonzero">
            <path d="M88.467 87.967L60.322 53.638c-.288-.35-.717-.555-1.172-.555h-.29l-.907-4.233c.96.132 1.916.222 2.862.222 2.844 0 5.617-.768 8.28-3.335.933-.898 1.82-2.133 2.76-3.442 1.449-2.012 3.09-4.295 4.64-4.826l.006-.003c.793-.27 1.216-1.13.948-1.924-.27-.792-1.133-1.223-1.925-.947h-.003c-2.048.702-4.298-.526-5.601-1.785-1.435-1.385-2.447-3.183-3.517-5.087l-.6-1.055c-.884-1.538-1.942-3.18-3.312-4.55 2.57-1.937 4.242-5.007 4.242-8.468V1.517c0-.839-.68-1.517-1.516-1.517H59.15c-.837 0-1.517.678-1.517 1.517V13.65c0 .837-.68 1.517-1.516 1.517h-3.853C53.711 13.554 54.6 11.433 54.6 9.1c0-5.019-4.081-9.1-9.1-9.1-5.019 0-9.1 4.081-9.1 9.1 0 2.333.889 4.454 2.336 6.067h-3.853c-.835 0-1.516-.68-1.516-1.517V1.517C33.367.678 32.687 0 31.85 0h-6.067c-.837 0-1.516.678-1.516 1.517V13.65c0 5.853 4.762 10.617 10.616 10.617H36.4v8.94l-4.26 19.876h-.29c-.455 0-.884.205-1.172.555L2.533 87.967H0V91h91v-3.033h-2.533zM63.172 28.18l.586 1.033c1.13 2.01 2.299 4.087 4.052 5.782 1.03.993 2.409 1.917 3.957 2.428-.831.955-1.609 2.037-2.375 3.101-.858 1.194-1.668 2.32-2.402 3.03-2.708 2.608-5.479 2.819-9.72 2.116L54.6 33.207v-8.94h1.517c1.245 0 2.435-.226 3.547-.622 1.442 1.174 2.539 2.851 3.508 4.536zM45.5 3.033c3.346 0 6.067 2.721 6.067 6.067s-2.721 6.067-6.067 6.067-6.067-2.721-6.067-6.067 2.721-6.067 6.067-6.067zm-6.1 30.652c.023-.104.033-.212.033-.318V22.75c0-.839-.68-1.517-1.516-1.517h-3.034c-4.181 0-7.583-3.402-7.583-7.583V3.033h3.033V13.65c0 2.509 2.042 4.55 4.55 4.55h21.234c2.508 0 4.55-2.041 4.55-4.55V3.033H63.7V13.65c0 4.181-3.402 7.583-7.583 7.583h-3.034c-.837 0-1.516.678-1.516 1.517v10.617c0 .106.01.214.033.318l4.157 19.398h-4.522l-4.264-17.05c-.168-.676-.775-1.15-1.471-1.15-.696 0-1.303.474-1.471 1.15l-4.264 17.05h-4.522L39.4 33.685zm8.707 19.398h-5.214l2.607-10.43 2.607 10.43zm-15.54 3.034H58.433l7.556 9.216-5.322 5.322-6.511-6.51c-.593-.594-1.552-.594-2.145 0l-6.511 6.51-6.511-6.51c-.593-.594-1.552-.594-2.145 0l-6.51 6.51-5.323-5.322 7.556-9.216zM6.455 87.967L23.079 67.69l6.182 6.182c.593.593 1.552.593 2.145 0l6.51-6.51 6.512 6.51c.593.593 1.551.593 2.144 0l6.511-6.51 6.511 6.51c.296.296.684.445 1.073.445.388 0 .776-.149 1.072-.445l6.182-6.182 16.624 20.277H6.455z" transform="translate(65 20)"/>
            <path d="M43.983 81.9H47.016V84.933H43.983zM50.05 81.9H53.083V84.933H50.05zM37.917 81.9H40.95V84.933H37.917zM19.717 9.1c-4.182 0-7.584-3.402-7.584-7.583 0-.839-.68-1.517-1.516-1.517C9.779 0 9.1.678 9.1 1.517 9.1 5.698 5.698 9.1 1.517 9.1.679 9.1 0 9.778 0 10.617c0 .838.68 1.516 1.517 1.516 4.181 0 7.583 3.402 7.583 7.584 0 .838.68 1.516 1.517 1.516.837 0 1.516-.678 1.516-1.516 0-4.182 3.402-7.584 7.584-7.584.837 0 1.516-.678 1.516-1.516 0-.84-.68-1.517-1.516-1.517zm-9.1 5.152c-.897-1.486-2.15-2.739-3.636-3.635 1.487-.897 2.74-2.15 3.636-3.636.896 1.487 2.149 2.74 3.635 3.636-1.486.896-2.739 2.149-3.635 3.635zM89.483 54.6c-4.181 0-7.583-3.402-7.583-7.583 0-.84-.68-1.517-1.517-1.517-.837 0-1.516.678-1.516 1.517 0 4.181-3.402 7.583-7.584 7.583-.837 0-1.516.678-1.516 1.517 0 .838.68 1.516 1.516 1.516 4.182 0 7.584 3.402 7.584 7.584 0 .838.68 1.516 1.516 1.516.838 0 1.517-.678 1.517-1.516 0-4.182 3.402-7.584 7.583-7.584.838 0 1.517-.678 1.517-1.516 0-.84-.68-1.517-1.517-1.517zm-9.1 5.152c-.896-1.486-2.149-2.74-3.635-3.635 1.488-.897 2.739-2.15 3.635-3.636.897 1.487 2.15 2.74 3.636 3.636-1.487.896-2.74 2.149-3.636 3.635zM18.2 36.4c-3.04 0-5.912 1.306-7.915 3.547-.868-.338-1.784-.514-2.702-.514C3.402 39.433 0 42.835 0 47.017c0 .596.086 1.216.264 1.899.173.667.776 1.134 1.468 1.134h25.431c.74 0 1.373-.535 1.496-1.266.106-.63.158-1.21.158-1.767 0-5.853-4.763-10.617-10.617-10.617zM3.033 47.017c0-2.509 2.042-4.55 4.55-4.55.818 0 1.608.227 2.347.675.687.418 1.577.226 2.033-.433 1.42-2.05 3.751-3.276 6.237-3.276 4.181 0 7.583 3.402 7.583 7.584H3.033z" transform="translate(65 20)"/>
        </g>
    </g>
</svg>
