<svg xmlns="http://www.w3.org/2000/svg" width="25" height="25" viewBox="0 0 25 25">
    <g fill="none" fill-rule="evenodd">
        <path fill="#4DEED2" d="M0 12.586c0 6.904 5.596 12.5 12.5 12.5H25v-12.5c0-6.903-5.597-12.5-12.5-12.5C5.596.087 0 5.684 0 12.587z"/>
        <path fill="#2E3D5D" d="M6.95 8.333c.386 0 .7.313.7.698v5.998c0 2.473 1.514 2.74 2.165 2.74h.7v.698c0 .385-.313.697-.7.697-2.166 0-3.565-1.623-3.565-4.135V8.333zm3.35 2.495c.387 0 .7.312.7.697v4.316h-.7c-.386 0-.7-.312-.7-.697v-3.619c0-.385.314-.697.7-.697zm8.95 0c.386 0 .699.312.699.697v3.619c0 .385-.313.697-.7.697h-.7v-4.316c0-.385.314-.697.7-.697zm-2.422.117c.137-.03.28-.019.407.043.28.137.41.475.292.763-.013.03-.028.06-.045.089l-.29.501-.554.955-.621 1.074-.496.855-.14.242c-.044.076-.088.149-.155.209-.255.229-.656.195-.871-.07-.059-.073-.102-.162-.148-.242l-.575-.992-.235-.406c-.067-.115-.129-.227-.136-.365-.014-.29.19-.555.476-.615.257-.054.516.069.647.293.148.252.293.506.44.759l.122-.212.533-.919.335-.58c-.098.01-.196.02-.294.026-.778.056-1.563.02-2.331-.111-.19-.032-.38-.07-.567-.115-.148-.035-.28-.08-.386-.194-.192-.206-.213-.528-.048-.756.078-.11.194-.19.323-.227.15-.043.287-.009.435.025.362.083.73.14 1.101.174.745.067 1.5.038 2.238-.09.183-.032.362-.074.543-.114zM10.3 8.346c.461 0 .835.373.835.832 0 .46-.374.833-.835.833-.461 0-.835-.373-.835-.833 0-.46.374-.832.835-.832zm8.964.12c.493 0 .956.191 1.304.539.225.223.225.586 0 .81-.224.224-.588.224-.813 0-.131-.131-.306-.203-.491-.203-.186 0-.36.072-.492.203-.112.112-.26.168-.406.168-.147 0-.295-.056-.407-.168-.224-.224-.224-.587 0-.81.349-.348.812-.539 1.305-.539z"/>
    </g>
</svg>
