<svg xmlns="http://www.w3.org/2000/svg" width="377" height="244" viewBox="0 0 377 244">
    <g fill="none" fill-rule="evenodd">
        <path fill="#4DEED2" d="M508.17 59.263c-4.86-2.373-10.303-2.802-15.55-1.65-6.91 1.52-13.77 3.133-20.746 4.347-28.193 4.9-57.064 6.008-85.563 3.441-14.159-1.276-28.239-3.47-42.096-6.639-5.657-1.294-10.858-2.582-16.609-.955-4.957 1.4-9.371 4.487-12.374 8.654-6.29 8.731-5.484 20.996 1.86 28.854 4.052 4.336 9.092 6.101 14.735 7.428 7.177 1.686 14.406 3.144 21.675 4.377 29.38 4.988 59.387 6.387 89.109 4.254 3.759-.27 7.51-.594 11.256-.97l-12.825 22.102-20.35 35.067c-1.563 2.696-3.127 5.394-4.693 8.09-5.604-9.658-11.153-19.35-16.815-28.978-5.016-8.53-14.908-13.224-24.733-11.157-10.898 2.293-18.726 12.4-18.17 23.47.264 5.272 2.62 9.526 5.175 13.933l8.984 15.481 21.98 37.88c1.777 3.065 3.416 6.452 5.661 9.217 8.216 10.124 23.557 11.416 33.298 2.682 2.562-2.297 4.24-5.078 5.926-7.983 1.781-3.07 3.564-6.14 5.345-9.212l18.955-32.664 23.77-40.964c7.049-12.151 14.1-24.302 21.152-36.452 3.704-6.384 7.442-12.746 11.111-19.15.63-1.094 1.21-2.211 1.693-3.38 4.529-11.002-.478-23.909-11.161-29.123z" transform="translate(-67)"/>
        <path fill="#78E3FD" d="M0 55.501C0 86.151 24.849 111 55.501 111 86.151 111 111 86.151 111 55.501 111 24.85 86.151 0 55.501 0 24.85 0 0 24.849 0 55.501z" transform="translate(-67)"/>
    </g>
</svg>
