<svg xmlns="http://www.w3.org/2000/svg" xmlns:xlink="http://www.w3.org/1999/xlink" width="64" height="64" viewBox="0 0 64 64">
    <defs>
        <circle id="prefix__a" cx="32" cy="32" r="32"/>
    </defs>
    <g fill="none" fill-rule="evenodd">
        <mask id="prefix__b" fill="#fff">
            <use xlink:href="#prefix__a"/>
        </mask>
        <use fill="#B2B5BF" xlink:href="#prefix__a"/>
        <path stroke="#FFF" stroke-linejoin="round" stroke-width="2" d="M48 32v18c0 1.105-.895 2-2 2H19c-1.105 0-2-.895-2-2V32h0M48 17c2.21 0 4 1.79 4 4v4.957h-.075c.05.287.075.582.075.883 0 2.85-2.313 5.16-5.166 5.16-2.159 0-4.009-1.324-4.78-3.203-.799 1.817-2.617 3.087-4.732 3.087-2.163 0-4.015-1.329-4.785-3.213-.767 1.884-2.62 3.213-4.783 3.213-2.172 0-4.031-1.34-4.795-3.237-.762 1.897-2.621 3.237-4.793 3.237-2.853 0-5.166-2.31-5.166-5.16 0-.261.02-.518.057-.768l-.057.001V21c0-2.21 1.79-4 4-4h31z" mask="url(#prefix__b)"/>
        <path stroke="#FFF" stroke-linecap="round" stroke-width="2" d="M41 38L41 51M37 42L37 45M23 25L23 29M42 25L42 29M32.5 25L32.5 29" mask="url(#prefix__b)"/>
    </g>
</svg>
